<?xml version="1.0" encoding="UTF-8" standalone="no"?>
<!DOCTYPE svg PUBLIC "-//W3C//DTD SVG 20010904//EN" "http://www.w3.org/TR/2001/REC-SVG-20010904/DTD/svg10.dtd">
<svg version="1.0" xmlns="http://www.w3.org/2000/svg" width="820.000000pt" height="695.000000pt" viewBox="0 0 820.000000 695.000000" preserveAspectRatio="xMidYMid meet">
<metadata>
Created by potrace 1.16, written by Peter Selinger 2001-2019
</metadata>
<g transform="translate(0.000000,695.000000) scale(0.100000,-0.100000)" fill="#000000" stroke="none">
<path d="M3770 6535 c-713 -82 -1350 -387 -1849 -886 -517 -516 -824 -1179 -892 -1919 -14 -163 -7 -495 16 -659 47 -345 137 -636 295 -956 96 -195 218 -389 350 -555 102 -129 352 -380 480 -482 465 -369 999 -590 1595 -660 139 -16 529 -16 660 1 517 64 946 220 1365 495 177 117 313 229 475 391 502 501 796 1112 886 1840 17 131 17 521 1 660 -70 596 -291 1130 -660 1595 -102 128 -353 378 -482 480 -166 132 -360 254 -555 350 -320 158 -608 247 -956 295 -162 23 -568 28 -729 10z m590 -146 c917 -85 1725 -584 2220 -1372 533 -849 583 -1944 130 -2848 -634 -1263 -2064 -1890 -3428 -1503 -750 213 -1402 743 -1775 1444 -239 449 -349 929 -334 1455 13 452 114 845 320 1250 437 855 1301 1456 2247 1564 52 6 109 13 125 15 71 8 389 5 495 -5z"/>
<path d="M3890 6154 c-544 -51 -1010 -230 -1433 -551 -131 -100 -390 -359 -490 -490 -290 -382 -462 -794 -534 -1278 -24 -163 -24 -562 0 -718 65 -425 206 -797 428 -1126 112 -167 196 -269 344 -416 430 -429 970 -689 1590 -766 146 -18 484 -16 635 5 597 81 1142 348 1560 766 418 418 685 963 766 1560 21 151 23 489 5 635 -77 620 -337 1160 -766 1590 -147 148 -249 232 -416 344 -328 221 -708 365 -1121 427 -100 14 -476 26 -568 18z m590 -173 c286 -47 503 -117 753 -243 628 -318 1101 -885 1292 -1550 258 -896 15 -1847 -640 -2503 -592 -591 -1429 -851 -2251 -700 -781 144 -1442 640 -1802 1352 -128 253 -202 488 -248 783 -26 163 -26 547 0 715 119 784 565 1440 1249 1839 295 173 655 288 1012 325 145 15 490 5 635 -18z"/>
<path d="M4220 4636 l0 -966 -105 0 -105 0 -2 758 -3 757 -225 0 -225 0 -5 -831 -5 -832 -64 142 c-62 137 -628 1433 -659 1509 -8 20 -18 37 -22 37 -16 0 -287 -280 -372 -383 -331 -405 -500 -820 -515 -1262 -11 -346 65 -664 244 -1017 80 -159 240 -384 381 -536 l48 -52 345 0 346 0 -157 157 c-230 233 -372 430 -500 695 -233 485 -237 969 -9 1419 l32 64 62 -125 c34 -69 338 -686 675 -1372 337 -687 617 -1248 621 -1248 5 0 9 374 9 830 l0 830 105 0 105 0 0 -362 c0 -200 3 -481 7 -625 l6 -263 269 0 268 0 0 618 0 619 347 6 c190 4 434 7 541 7 l194 0 -7 -52 c-40 -301 -229 -725 -477 -1071 -43 -60 -78 -111 -78 -113 0 -2 142 -4 315 -4 l315 0 29 57 c48 97 179 388 232 516 99 241 183 537 210 739 17 120 6 388 -21 513 -66 312 -232 677 -415 910 -82 105 -315 332 -433 423 -352 271 -753 423 -1229 468 l-73 7 0 -967z m725 280 c193 -74 373 -186 516 -324 160 -153 270 -317 349 -518 40 -102 84 -267 96 -356 l7 -48 -577 0 -576 0 0 654 0 654 58 -18 c31 -10 88 -30 127 -44z"/>
<path d="M6516 1319 c-145 -33 -202 -213 -104 -325 76 -86 190 -95 274 -22 157 138 32 393 -170 347z m134 -59 c36 -26 69 -90 70 -135 0 -45 -40 -116 -80 -143 -68 -46 -178 -15 -217 61 -24 46 -21 127 7 171 46 75 149 97 220 46z"/>
<path d="M6497 1233 c-4 -3 -7 -55 -7 -115 0 -99 2 -109 18 -106 12 2 18 15 20 46 3 40 5 43 30 40 21 -2 29 -11 38 -43 7 -28 17 -41 31 -43 20 -3 21 0 12 40 -6 23 -15 48 -21 55 -7 9 -5 17 6 28 17 17 21 52 8 72 -16 25 -117 45 -135 26z"/>
</g>
</svg>